<?xml version="1.0" encoding="UTF-8" standalone="no"?>
<!DOCTYPE svg PUBLIC "-//W3C//DTD SVG 1.1//EN" "http://www.w3.org/Graphics/SVG/1.1/DTD/svg11.dtd">
<svg xmlns="http://www.w3.org/2000/svg" version="1.1" viewBox="0.00 0.00 193.00 73.00">
<path stroke="#c3d0d1" stroke-opacity="0.996" stroke-width="2.00" fill="none" stroke-linecap="butt" vector-effect="non-scaling-stroke" d="
  M 190.43 72.58
  Q 188.62 71.94 187.75 71.92
  Q 174.53 71.57 164.13 72.15
  Q 163.55 72.18 163.04 72.69"
/>
<path fill="#ffffff" d="
  M 135.42 3.66
  Q 136.84 2.96 137.50 2.93
  Q 146.57 2.55 156.56 2.65
  A 1.26 1.26 0.0 0 1 157.81 3.91
  L 157.81 34.78
  Q 157.81 36.25 156.34 36.24
  L 130.99 36.11
  Q 128.88 36.10 129.03 33.99
  Q 129.65 25.58 129.39 17.04
  C 129.18 10.47 129.53 6.57 135.42 3.66
  Z"
/>
<circle fill="#ffffff" cx="116.26" cy="21.44" r="8.12"/>
<circle fill="#ffffff" cx="172.96" cy="26.13" r="7.67"/>
<path fill="#ffffff" d="
  M 128.39 55.95
  A 0.51 0.50 -19.7 0 0 129.26 56.36
  C 133.91 51.47 140.86 52.10 146.76 52.45
  A 1.43 1.42 70.7 0 0 147.90 50.07
  C 143.75 45.49 137.60 47.49 132.93 49.65
  A 0.64 0.64 0.0 0 1 132.08 49.31
  L 129.71 43.55
  Q 129.47 42.95 130.05 42.68
  C 137.28 39.23 152.38 36.58 156.97 45.04
  Q 158.30 47.48 158.31 52.68
  Q 158.32 61.93 158.42 71.14
  Q 158.42 71.77 157.79 71.77
  L 148.44 71.70
  Q 147.93 71.69 147.93 71.19
  L 147.92 69.16
  A 0.40 0.39 77.6 0 0 147.36 68.80
  C 146.11 69.36 145.28 70.61 144.18 71.06
  C 141.99 71.96 139.09 71.79 137.24 71.84
  Q 132.44 71.99 129.12 67.75
  A 0.53 0.53 0.0 0 0 128.19 68.23
  L 128.95 70.72
  A 0.70 0.69 -8.3 0 1 128.28 71.61
  L 119.51 71.63
  Q 118.27 71.63 118.28 70.38
  Q 118.33 63.18 118.26 56.09
  Q 118.23 52.58 117.43 51.05
  C 115.38 47.08 108.93 48.36 107.25 52.01
  Q 106.48 53.69 106.44 57.56
  Q 106.37 64.28 106.72 70.96
  Q 106.75 71.53 106.18 71.53
  L 96.71 71.50
  A 0.66 0.66 0.0 0 1 96.05 70.84
  L 96.05 59.60
  Q 96.05 58.41 94.85 58.40
  L 75.21 58.34
  A 0.80 0.80 0.0 0 0 74.56 59.61
  Q 80.31 67.64 88.39 61.28
  A 1.16 1.16 0.0 0 1 89.96 61.41
  L 93.73 65.57
  A 0.87 0.87 0.0 0 1 93.77 66.68
  C 88.01 74.18 72.52 73.10 67.08 65.92
  C 63.72 61.49 63.36 54.93 64.69 49.57
  A 0.72 0.71 87.5 0 0 63.77 48.72
  C 59.08 50.34 57.33 52.73 57.40 57.90
  Q 57.50 64.44 57.40 70.83
  A 0.69 0.68 -89.6 0 1 56.72 71.51
  L 39.02 71.50
  A 1.88 1.88 0.0 0 1 37.25 70.22
  C 36.64 68.42 35.99 64.23 33.51 64.26
  Q 25.65 64.35 18.20 64.20
  A 1.59 1.59 0.0 0 0 16.67 65.23
  L 14.57 70.76
  A 1.15 1.15 0.0 0 1 13.49 71.51
  L 3.84 71.52
  Q 3.19 71.52 3.45 70.93
  L 20.79 30.71
  A 0.84 0.81 11.2 0 1 21.55 30.22
  L 31.39 30.28
  A 0.91 0.90 -11.1 0 1 32.23 30.84
  L 46.14 64.15
  A 0.49 0.49 0.0 0 0 47.08 63.96
  L 46.79 40.11
  Q 46.78 39.50 47.39 39.50
  L 56.76 39.48
  A 0.73 0.72 2.2 0 1 57.49 40.26
  L 57.20 43.69
  A 0.59 0.59 0.0 0 0 58.28 44.07
  Q 61.02 39.90 66.04 39.26
  A 1.40 1.39 -2.3 0 1 67.61 40.71
  L 67.48 43.45
  A 0.59 0.59 0.0 0 0 68.49 43.89
  C 74.83 37.49 88.18 37.35 93.34 45.49
  Q 94.45 47.24 95.56 48.98
  A 0.41 0.40 27.7 0 0 96.31 48.75
  L 95.94 40.24
  A 0.70 0.70 0.0 0 1 96.64 39.50
  L 106.12 39.54
  A 0.73 0.73 0.0 0 1 106.83 40.37
  L 106.41 43.33
  A 0.51 0.51 0.0 0 0 107.30 43.73
  Q 112.33 37.89 120.01 39.54
  C 128.08 41.27 129.28 48.87 128.39 55.95
  Z
  M 20.61 55.30
  A 0.33 0.33 0.0 0 0 20.92 55.76
  L 31.22 55.83
  A 0.33 0.33 0.0 0 0 31.53 55.38
  L 26.47 42.23
  A 0.33 0.33 0.0 0 0 25.85 42.22
  L 20.61 55.30
  Z
  M 74.41 52.73
  L 86.55 52.75
  A 0.02 0.02 0.0 0 0 86.57 52.73
  L 86.57 52.73
  A 6.04 6.04 0.0 0 0 80.55 46.68
  L 80.45 46.68
  A 6.04 6.04 0.0 0 0 74.39 52.71
  L 74.39 52.71
  A 0.02 0.02 0.0 0 0 74.41 52.73
  Z
  M 146.30 57.87
  L 138.21 58.77
  A 1.29 1.29 0.0 0 0 137.07 60.20
  L 137.08 60.33
  A 5.38 5.25 83.6 0 0 142.90 65.09
  L 143.12 65.07
  A 5.38 5.25 83.6 0 0 147.74 59.13
  L 147.72 59.01
  A 1.29 1.29 0.0 0 0 146.30 57.87
  Z"
/>
<path fill="#ffffff" d="
  M 190.43 72.58
  Q 188.62 71.94 187.75 71.92
  Q 174.53 71.57 164.13 72.15
  Q 163.55 72.18 163.04 72.69
  Q 161.90 72.80 161.92 72.00
  Q 162.36 56.12 162.24 40.54
  A 1.26 1.25 90.0 0 1 163.50 39.27
  Q 170.48 39.31 177.69 39.33
  C 184.96 39.36 190.40 41.09 190.42 49.18
  Q 190.46 60.86 190.43 72.58
  Z"
/>
<path fill="#87a1a3" fill-opacity="0.988" d="
  M 190.43 72.58
  L 188.36 73.00
  L 183.27 73.00
  L 176.36 73.00
  L 163.50 73.00
  Q 163.70 72.67 163.04 72.69
  Q 163.55 72.18 164.13 72.15
  Q 174.53 71.57 187.75 71.92
  Q 188.62 71.94 190.43 72.58
  Z"
/>
</svg>
